<svg xmlns="http://www.w3.org/2000/svg"><symbol id="micropachycephalosaurus" viewBox="0 0 256 256"><path d="M132.5 151.6c-.3 0-.4.2-.4.6h-.1c-.3 0-.5.1-.5.5s.2.6.5.6.4-.2.4-.6h.1c.4 0 .5-.2.5-.5s-.1-.6-.5-.6zm1.5-.8a1.8 1.8 0 0 0-.9.8h.3a2.1 2.1 0 0 0 1.1-.4 1.8 1.8 0 0 0 .9-.8h-.3a1.5 1.5 0 0 0-1.1.4zm3-2.6a.5.5 0 0 0-.4.5h-.1c-.3 0-.4.2-.4.6h-.2c-.3 0-.4.2-.4.6s.1.5.4.5.5-.1.5-.5h.1c.3 0 .5-.2.5-.6a.5.5 0 0 0 .6-.6c0-.3-.2-.5-.6-.5zm23.4-6a8.7 8.7 0 0 1-1.2 1.4 1.7 1.7 0 0 0 .8 1.1l1.1.2a2.4 2.4 0 0 0 1.4-.5 4.3 4.3 0 0 0 1.1-1.2l.8-1.5c.2-.5.3-1.2.5-1.2h-3.5c-.2 0-.5 1.1-1 1.7z"/><path d="M127.9.3a128 128 0 1 0 128 128 128 128 0 0 0-128-128zm96 75.9a6.2 6.2 0 0 1-1.6.4h-3.7a39.3 39.3 0 0 0-5.2 1.3 18.6 18.6 0 0 0-3.7 1.6 8.8 8.8 0 0 0-2.5 2.2 16 16 0 0 0-1.8 2.9c-.5 1.2-1 2.5-1.5 4s-1 3.1-1.6 5.1l-1.2 3.4c-.4 1.1-.9 2.2-1.3 3.2a23 23 0 0 1-1.5 3.2l-1.7 3.2a32.3 32.3 0 0 1-2.7 4.1l-3 3.7-3.1 3.6a40.8 40.8 0 0 0-3.1 3.9 8.7 8.7 0 0 0-1.4 2.7c-.3.9-.7 1.7-1 2.5a7.9 7.9 0 0 1-1.4 2.3 5.4 5.4 0 0 1-2.5 1.6l-1.3.5-2 .7-2.1.6-1.4.4a3.3 3.3 0 0 1 .2 2.1 2 2 0 0 1-.9.9l-1.2.6a1.8 1.8 0 0 0-.9 1l-2.3 6.8a2.5 2.5 0 0 1-1 1.5 5.8 5.8 0 0 1-1.8.8 13.6 13.6 0 0 1-2 .2 10.9 10.9 0 0 1-1.9-.1h-.8c-.5 0-.9.2-1.2 0s-.4-.3-.4-.8 0-.3.1-.4l.3-.3.2-.3c.1-.1.1-.2.1-.4v-.2l-3.5 1.7-3.4 2.1-3.3 2.2-3.4 2-.9.4-1.2.6a3.9 3.9 0 0 0-1 .8 1.3 1.3 0 0 0-.4 1v.6l1.8 1.6 2 1.8a16.6 16.6 0 0 0 2.1 1.6l2.1 1.2a4.8 4.8 0 0 0 1.8.7l1.9.6 1.9.6 1.7.9a6.6 6.6 0 0 1 1.4 1.5l1.1 1.5a17.1 17.1 0 0 0 1.1 1.4 4.7 4.7 0 0 0 1.5 1.3 3.8 3.8 0 0 0 1.7.6l2.1.7a5.2 5.2 0 0 1 1.8 1 2.1 2.1 0 0 1 .8 1.7.4.4 0 0 1-.1.3v.2l-5.7 1.2-1.1.4-1.2.2h-.5l-1.2-.6-1.7-1.1a12.8 12.8 0 0 1-1.7-1l-1.1-.7-.2-.2-.3-.6-.4-.5c-.1-.2-.2-.3-.2-.5l-2.3-4.5-1.1-.4-1.8-.8-2.2-.9-2.2-1-1.8-.8-1.1-.6-2.8-1.6a17.8 17.8 0 0 1-2.6-2.2 10.5 10.5 0 0 1-2-2.7 7.2 7.2 0 0 1-1.1-3.1l-.6.2-.6.3-.8.7-1.7 1.2-2.2 1.4-2.1 1.4-1.8 1-.9.6-6.1 3.5a23.4 23.4 0 0 0-4.5 3.5 17.7 17.7 0 0 0-3.7 4.4c-.9 1.8-.7 4-2.4 6.7v1.6a9.3 9.3 0 0 0 1.2 4.5 7.8 7.8 0 0 0 2.1 2.6 8.7 8.7 0 0 0 2.7 1.4 14.5 14.5 0 0 1 2.5 1 5.3 5.3 0 0 1 2 .9 4.6 4.6 0 0 1 .8 2.1h-13.4l-.2-.4c-.1-.2-.2-.2-.3-.2l-.5-.2c-.2-.1-.4-.1-.6-.3a2.9 2.9 0 0 1-1.3-1.6 7.2 7.2 0 0 1-.5-2.1 19.4 19.4 0 0 1 .2-2.4c0-.8.3-1.4.3-2v-1.5a4.7 4.7 0 0 1 .3-1.8c.2-.8.3-1.7.6-2.7s.4-2.1.7-3.2.6-2.2.8-3.2.5-1.9.7-2.6.3-1.4.4-1.8a9.3 9.3 0 0 1 .7-2 12.4 12.4 0 0 1 1-2 13.9 13.9 0 0 0 4.5-2.5l3.3-3.3c1-1.2 2-2.3 2.9-3.5a15 15 0 0 1 3.5-3.1l1.4-.7 2.1-.8 2.3-1 2.2-1.1a7.3 7.3 0 0 0 1.6-1.4 2.2 2.2 0 0 0 .6-1.5V142a1.7 1.7 0 0 0-.6-1.2l-.8-.3-1.2-.5-1.2-.6-.8-.3a9.4 9.4 0 0 1-2-1.2l-2.7-1.9a26.3 26.3 0 0 0-2.6-1.6 3.1 3.1 0 0 0-1.7-.6h-7.9c-6.1 0-12-.1-17.8.1s-11.8.2-17.8.2c-4.5 0-8.8-.1-13-.3s-8.4-.7-12.5-1.4a85.5 85.5 0 0 1-12.1-3 66.2 66.2 0 0 1-11.8-5l-1.5-.8-1.6-1a8 8 0 0 1-1.3-1.3 3 3 0 0 1-.5-1.6 9.5 9.5 0 0 1 2.1.4l2.4 1 2.2.9 1.6.7 4.6 1.6a49.1 49.1 0 0 0 5.1 1.5 52.7 52.7 0 0 0 5.2 1 28.5 28.5 0 0 0 4.9.4h25.5l1.2-.2 2.6-.3 3.4-.5 3.6-.7 3.5-.6 2.7-.6 6.9-1.3 7.4-1.6c2.5-.6 5-1.3 7.4-2.1a48.8 48.8 0 0 0 6.6-2.9l3.9-1.8 3.8-1.6 4-1.3a25.9 25.9 0 0 1 4.2-.9h1l1.8-.2h1.8l1.1-.2 1.9-.3 3.3-.8 4.1-.9 4.1-.9c1.3-.3 2.4-.9 3.3-1.1s1.6-.8 1.9-.8h6.6a67.7 67.7 0 0 1 8 .8c2.6.2 5.2.5 7.9.5a10.2 10.2 0 0 0 5.1-1.3 18.3 18.3 0 0 0 4.5-3.5 28.3 28.3 0 0 0 4-5 54.5 54.5 0 0 0 3.2-5.7 55.3 55.3 0 0 0 2.6-5.6l1.8-4.9c.4-1.2.8-2.3 1.1-3.5s.7-2.1 1-3.1.8-1.8 1.2-2.6a7 7 0 0 1 1.8-2 8.3 8.3 0 0 1 2.7-1.7 12.7 12.7 0 0 1 3.8-.8h3.1c.8 1.7 1.8 1 3 1.4s2.4 1 3.6 1.5a21.6 21.6 0 0 1 3 1.8 2.9 2.9 0 0 1 1.2 2.2 2.4 2.4 0 0 1-.4 1.5 3.6 3.6 0 0 1-1.2.6z"/></symbol><symbol id="brachiosaurus" viewBox="0 0 256 256"><path d="M58.5 167.6a37.9 37.9 0 0 0-7.7.8v.2h-.1c0 .3.3.6.8 1a18.6 18.6 0 0 0 2 1l2.7 1 2.8.8 2.4.7 1.5.2h2.2a11.1 11.1 0 0 0 2.5-.5l2.4-.8a5 5 0 0 0 1.7-1.5 30.3 30.3 0 0 0-6.4-2.2 30.8 30.8 0 0 0-6.8-.7z"/><path d="M127.9.3a128 128 0 1 0 128 128 128.1 128.1 0 0 0-128-128zm83.5 70.6v.3a8.8 8.8 0 0 1-.1 1.4l-.3 2.1a11.2 11.2 0 0 1-.4 2.1 11.3 11.3 0 0 1-.2 1.4 7.6 7.6 0 0 0-.9 1.8c-.2.7-.5 1.3-.7 2s-.3 1.3-.5 2a16.7 16.7 0 0 1-.8 2 30.7 30.7 0 0 1-1.7 3.1 21.1 21.1 0 0 0-1.6 3L184.1 120a.8.8 0 0 1-.2.6l-.3.3c0 .1-.2.1-.3.3l-.4.5-1.7 2.2-2 2.9-2.2 3.3a29 29 0 0 0-2 3.3 15.9 15.9 0 0 0-1.4 3 6 6 0 0 0-.6 2.3c0 .3-.2.5-.2.7s.2.5.2.7c-.1 0-.2.1-.2.3a.6.6 0 0 0 .2.5v10.2a4.4 4.4 0 0 1-.2 1c-.2.4-.2.7-.4 1.2s-.5.8-.6 1.2-.5.8-.5 1.1v1.7a.3.3 0 0 1 0 .4l-.4.8-.7.8a1.1 1.1 0 0 1-.5.4v.4c0 .1.7.3.8.5s.8.3.8.4v1.4a2.1 2.1 0 0 1 0 .8v.6a22.5 22.5 0 0 1-.6 3.6c-.2 1.2-.5 2.3-.7 3.5s-.5 2.4-.7 3.5a21.9 21.9 0 0 0-.3 3.6 44.3 44.3 0 0 0 .3 6.3 42.2 42.2 0 0 0 1 6.2 36.6 36.6 0 0 0 2.2 5.8 25.1 25.1 0 0 0 3.4 5.3l-1.2.8-1.7.7-1.8.5a3.3 3.3 0 0 1-1.4 0h-.5l-1-.2-1.2-.3-1-.2h-.8l-.7-.3-.6-.5a1.6 1.6 0 0 1-.4-.7 28.2 28.2 0 0 0 .2-4.1l-.3-4.3c-.2-1.5-.4-2.9-.5-4.3l-.6-4.1-.2-.7c-.1-.3-.1-.5-.2-.6s.1-2.3.1-3.6 0-2.7-.1-4.1a25.7 25.7 0 0 0-.6-4 11.7 11.7 0 0 0-1.5-3.4 3 3 0 0 0-1.4 1.8 17.3 17.3 0 0 0-.8 2.7c-.2 1-.2 2-.4 2.9s-1 1.8-1 2.4v7.6c0 2.8-.2 5.6-.1 8.3a79.1 79.1 0 0 0 .6 8.3c0 .1.1.2.4.3l.8.6.8.7c.3.3.4.5.4.7s-.3.5-.9.8a7.5 7.5 0 0 1-1.8.8l-2 .9-1.3.4h-.2l-4.8-2.6a.4.4 0 0 1-.2-.5v-.6a29.9 29.9 0 0 1 0-3 29.1 29.1 0 0 0 .1-3.1 25.3 25.3 0 0 0-.3-3.8l-.6-3.7-.6-3.8c-.1-1.3-.2-2.6-.2-3.9s0-2.4.1-3.4l.3-2.8.6-2.8c.2-1 .4-2 .6-3.2a.8.8 0 0 0 0-.7 2.8 2.8 0 0 1-.1-.8 5.8 5.8 0 0 0-1.9.3l-1.9.5-1.9.6-2 .5-1.3.2h-1.1c-.4.1-.7-.1-1-.1h-2.9a46.4 46.4 0 0 1-5.3-.1h-7.7a4.1 4.1 0 0 0-2.4.8v5.3c0 1.7-.1 3.4-.2 5.1s-.2 3.4-.2 5.1-.2 3.5-.2 5.3v5.1c0 .5.7 1.1 1.2 1.7l1.4 1.7 1.2 1.8a4.1 4.1 0 0 1 .5 1.8v.4a11.2 11.2 0 0 1-4.1.4c.1.4 0 .7-.2.8h-2.8a7.8 7.8 0 0 1-2.2-.3 3.7 3.7 0 0 1-1.9-.8 2.4 2.4 0 0 1-.8-1.9 6.9 6.9 0 0 1 .2-1.3l.3-1.3.3-1.3a6.6 6.6 0 0 0 .1-1.4 24.8 24.8 0 0 0-.2-3.9c-.2-1.2-.4-2.4-.7-3.6s-.5-2.7-.8-3.9a18.2 18.2 0 0 1-.7-4h-.5c-.2 0-.4.8-.5 1l-.4.7-.3.5a18.8 18.8 0 0 1-1.6 2.3 17.6 17.6 0 0 0-1.4 2.3 12.8 12.8 0 0 0-1.1 2.4 8.6 8.6 0 0 0-.5 2.7 3.5 3.5 0 0 0 .4 1.7 10.1 10.1 0 0 0 .7 1.5 7.5 7.5 0 0 1 .7 1.2l.4.5a1.2 1.2 0 0 1-.4.8l-1.1.4a5 5 0 0 1-1.3.3h-4.4a2.3 2.3 0 0 1-1-.4 1.6 1.6 0 0 1-.7-.9 9.1 9.1 0 0 1-.6-1.6c-.2-.6-.3-1.1-.5-1.6a5.1 5.1 0 0 1-.3-1.7 4.2 4.2 0 0 1 .4-1.5 14 14 0 0 1 1-1.6c.3-.6.7-1.1 1-1.6a6 6 0 0 0 .9-1.5l2.4-5.9c.8-2 1.7-4 2.5-5.9a2.2 2.2 0 0 1 .5-.8l.5-.7a5.6 5.6 0 0 0 .5-.8 1.9 1.9 0 0 0 .1-.8q0-.6-.3-.6h-1.3l-9 2.4a3.7 3.7 0 0 1-1.4.6l-1.7.4-1.6.5a1.2 1.2 0 0 0-.7 1.1 2 2 0 0 0 .2.9 2.3 2.3 0 0 0 .7.7l.8.5.8.6-.4.5-1.3-.9-1.4-.8-1.5-.6a4.5 4.5 0 0 0-1.6-.3 13.1 13.1 0 0 0-3.8.6l-4 1.1-4.1 1.1a15.2 15.2 0 0 1-4.2.6 31.2 31.2 0 0 1-3.5-.4l-5-1.2c-1.7-.5-3.6-1-5.4-1.7a39.1 39.1 0 0 1-5-2.3 12.2 12.2 0 0 1-3.7-2.7 4.3 4.3 0 0 1-1.5-3 4.9 4.9 0 0 1 1.1-3.3 7.1 7.1 0 0 1 2.8-1.6c1.1-.4 2.3-.1 3.5-.2s2.4.4 3.4.4h4a2.4 2.4 0 0 1 1.3-.3 19.5 19.5 0 0 1 2.3.2 20.6 20.6 0 0 1 2.6.3l2 .2a6 6 0 0 1 1.9.6l1.8.8 1.9.8a6.4 6.4 0 0 0 2 .3 8.8 8.8 0 0 0 4-1 47.8 47.8 0 0 0 4.2-2.6c1.3-1 2.7-2.1 3.9-3.2s2.3-2 3.3-2.7a9.4 9.4 0 0 1 1.8-1.2l1.9-1.1 1.8-1.3a12.9 12.9 0 0 0 1.5-1.7c.9-1.5 1.8-3 2.6-4.5a33.5 33.5 0 0 1 2.7-4.5l1.3-1.4 1.6-1 1.6-.8 1.7-1 3.6-2.6 3.5-3 3.3-3 3.5-2.9a28.8 28.8 0 0 1 3.8-2.2l4-1.9 2.5-1.2 2.5-1.4 2.6-1.1a11.2 11.2 0 0 1 2.6-.8l22.6-3.2a11.2 11.2 0 0 0 3.5-1.2 17.9 17.9 0 0 0 3.4-2.2 28.9 28.9 0 0 0 3.2-2.9l3-3.3 2.6-3.2 2.4-2.8 7.7-9.1.4-.2.5-.6.5-.5.3-.3 2.1-3.3.2-.2.4-.2.4-.2.2-.2.4-.4c.2-.2.3-.4.4-.4l1.2-1.7a24.3 24.3 0 0 0 1.4-2l1.3-2a10.6 10.6 0 0 0 1-1.7 18.9 18.9 0 0 0 .9-2.1 17.2 17.2 0 0 1 .7-2.1 19.5 19.5 0 0 1 .8-2.2c.2-.7 1-1.5 1-2.2v-6.2a5.3 5.3 0 0 0-1.1-3.1 13.6 13.6 0 0 0-6.1-4.4 8.1 8.1 0 0 0-3.2-.7 23.2 23.2 0 0 0-5.9.7 12.4 12.4 0 0 0-5.1 2.6 10.6 10.6 0 0 0-1.5 1.5l-1.6 1.8-1.8 2.1-1.8 1.8a10.2 10.2 0 0 1-1.8 1.3 3.1 3.1 0 0 1-1.8.5 1.6 1.6 0 0 1-1.2-.4 1.8 1.8 0 0 1-.5-1.2v-.4a1.1 1.1 0 0 1 .1-.5 3.1 3.1 0 0 1 .2-.8c0-.2.1-.5.1-.7a1.3 1.3 0 0 0 .1-.5 4.7 4.7 0 0 0-.3-1.7l-.6-1.4-.6-1.2a5 5 0 0 1-.2-1.2c.4 0 .7-.1.8-.3l.5-.6.4-.8a2.8 2.8 0 0 1 .8-.6h2.9a1.3 1.3 0 0 0 .9-.4 4.6 4.6 0 0 1 .7-.7h.4c.1 0 .2.2.3.4a.5.5 0 0 0 .2.4.4.4 0 0 1 .4-.4l.6-.4 1.1-.6 1.4-.8 1.3-.8 1.1-.7.6-.4 2.1-1.3a6.4 6.4 0 0 1 1.8-.6l1.9-.2h6.5l1.5.6 1.6.3 1.5.3 1.6.5a16.6 16.6 0 0 1 4.6 3 19.2 19.2 0 0 1 3.2 4.3 20.4 20.4 0 0 1 1.7 5.1 19.8 19.8 0 0 1 .5 5.4V71z"/></symbol><symbol id="velociraptor" viewBox="0 0 256 256"><path d="M128.5.3a128 128 0 1 0 127.9 128A128 128 0 0 0 128.5.3zm110.6 116.8a28 28 0 0 1-4.1 0h-3.3c-3.1 0-6.1-.1-9.2-.4l-9.2-1-9.1-1c-3.1-.3-6.1-.4-9.2-.4a128.9 128.9 0 0 0-16.4 1 72.9 72.9 0 0 0-16 3.7l-30.7 11a2.4 2.4 0 0 0-1.2 1.6 17.3 17.3 0 0 0-.8 2.7c-.3 1-.5 2-.7 2.9a9.8 9.8 0 0 1-.6 2 3.6 3.6 0 0 0 1.4 1.3l2.4 1.2 2.9 1.1a18.4 18.4 0 0 1 2.8 1.5 7.8 7.8 0 0 1 2.1 1.9 3.7 3.7 0 0 1 .9 2.5 1.7 1.7 0 0 1-.5 1.2l-1.2.9-1.7.7a8 8 0 0 0-1.6.8 4 4 0 0 0-1.2 1 2.8 2.8 0 0 0-.5 1.6 3.7 3.7 0 0 0 .8 2.5 7.4 7.4 0 0 0 1.9 1.6l2.4 1.3a7.9 7.9 0 0 1 2.2 1.8 17.5 17.5 0 0 1 2 3.5 16.3 16.3 0 0 1 1.3 3.7c.3 1.2.6 2.5.8 3.8s.1 2.7.2 4l1.4 1.3v7.2h.8l1.1.2.9.2.6.3a3.2 3.2 0 0 1 .1.8c0 .3-.1.6-.1 1a5.6 5.6 0 0 1-.4 1.2 2.4 2.4 0 0 1-.6 1 1 1 0 0 1-.9.3h-5.2c-.2 0-.5-.5-1-.8l-1.5-.9-1.6-.8c-.5-.3-.9-.8-1.2-.8h-6.2a5 5 0 0 1 .7-3 4.9 4.9 0 0 1 1.6-1.6 7.9 7.9 0 0 1 2.2-.6l2.1-.4a4.3 4.3 0 0 0 1.7-.6 1.6 1.6 0 0 0 .6-1.4v-.6l-.9-1.8c-.4-.8-.8-1.6-1.3-2.4a20.7 20.7 0 0 0-1.5-2.5 10 10 0 0 0-1.6-1.8 3.6 3.6 0 0 0-1.3-.8l-1.9-1-1.7-1.1a1.7 1.7 0 0 1-1-1.1c-.3-.8-.6-1.8-.9-2.9a31.9 31.9 0 0 0-1.1-3.3 9.3 9.3 0 0 0-1.8-2.6 3.8 3.8 0 0 0-2.9-1 24.7 24.7 0 0 0-6 .8 26.8 26.8 0 0 0-5.8 2.2 29.8 29.8 0 0 0-5 3.5 21.7 21.7 0 0 0-4 4.6c-.1.2-.2.2-.3.2h-.2c-.1 0-.1-.1-.1-.2s-.1-.1-.2-.3-.1-.4-.2-.6-.1-.5-.1-.6-.1-.3-.2-.4h-.3a1.3 1.3 0 0 0-1 .4 4.7 4.7 0 0 0-.9 1.2l-.9 1.3a2.1 2.1 0 0 1-.8 1 5.2 5.2 0 0 1-.7-1.6c0-.5-.1-1-.1-1.7a13.5 13.5 0 0 1 .4-2.9l.9-2.8a27.7 27.7 0 0 0 1-2.6c.2-1 .4-2.8.4-2.8h-4.9c0-1.6.2-1.8.6-2.4a7.5 7.5 0 0 1 1.6-1.5 8.8 8.8 0 0 1 2.2-1l2.1-.2h3.1l2.9.5 2.9.5 3 .2h2.3a3 3 0 0 0-1.7-1.4l-2.6-.4-2.7-.2c-.9-.1-1.6.1-2.2-.2l-3.9-2.2h-.3a11.4 11.4 0 0 0-3.2 0 16.9 16.9 0 0 1-3.2.1 7.3 7.3 0 0 1-3-.7l-2.6-1.4-2.7-1.3a4.9 4.9 0 0 0-2.9-.7v6.1h1.6l1-.3.9-.6a3.5 3.5 0 0 1 .9-.6l.6-.2v2.8l2.1-.7c0 .1.2.3.2.5a2 2 0 0 0 .1.5 6 6 0 0 1-1.3 4 24.4 24.4 0 0 1-3.3 2.9 21.3 21.3 0 0 0-4.6-1.3l-4.9-.7v-7.8c0 .1-1 .2-1.7.5l-2.1 1-1.9 1.2c-.5.4-.9.8-.9 1.2v7a10.1 10.1 0 0 0 3-.3l1.8-.6 1.2-.6a2.8 2.8 0 0 1 1.3-.3h.3a1.5 1.5 0 0 1 .3.7l.5 1.2c.1.5.3.9.4 1.3a4.6 4.6 0 0 1 .1 1 4.3 4.3 0 0 1-.4 1.9 6.9 6.9 0 0 1-1 1.9 6.5 6.5 0 0 1-1.6 1.3 3.2 3.2 0 0 1-1.8.6h-1.1l-3-.4a24.5 24.5 0 0 1-3.7-.8 11.9 11.9 0 0 1-3.2-1.2 2.5 2.5 0 0 1-1.5-2.1v-12c0-.1.4-.4.9-.8l1.9-1.6 2.4-2.2a19.5 19.5 0 0 0 2.4-2.6 21.1 21.1 0 0 0 1.8-2.7 5.2 5.2 0 0 0 .8-2.6 4.1 4.1 0 0 0-1.2-2.8 20 20 0 0 0-2.8-2 23.3 23.3 0 0 0-3.3-1.4l-2.6-.9-1.3-9.2a16.8 16.8 0 0 0-.6-2.7 13.6 13.6 0 0 0-1.1-2.8 7.4 7.4 0 0 0-1.8-2.1 4 4 0 0 0-2.7-.9 9.8 9.8 0 0 0-3.6.5 13.6 13.6 0 0 0-3.3 1.5l-1.6 1-2.6 1.5-3 1.8-3 1.7-2.5 1.7c-.8.4-1.3 1.1-1.7 1.1h-1l-1.7-.2-2.1-.4c-.7-.1-.9-.4-1.4-.8s-.3-.8-.3-1.3v-1.9c0-.6-.3-.9 0-1h1.6a.5.5 0 0 1 0-.4c0-.3.1-.5.1-.8a2.9 2.9 0 0 0 .2-.9c.1-.3.1-.4 0-.5a1.5 1.5 0 0 0-.8-.8l-.9-.5a4.6 4.6 0 0 1-.7-.7 3.7 3.7 0 0 1 0-2.4 4.7 4.7 0 0 1 .7-1.2c.3-.4.2-.7.6-.9l.8-.3v.8a3.5 3.5 0 0 0 .6 1.4 1.2 1.2 0 0 0 1.2.8 1.8 1.8 0 0 0 1.1-.5 5.2 5.2 0 0 0 1-1.1 11.5 11.5 0 0 0 .6-1.7c.2-.4.3.3.3-1.4H21.3a1.4 1.4 0 0 1-.9-.5l-1.1-.6-.9-.8a2.1 2.1 0 0 1-.4-1.1 4.8 4.8 0 0 1 1.1-3.2 8.1 8.1 0 0 1 2.6-1.8 17 17 0 0 1 3.2-1l2.9-.8 2.2-1 3.4-1.5 3.4-1.6a10.7 10.7 0 0 1 2.2-1.1h13.7a7.6 7.6 0 0 1 3.9 1 14.8 14.8 0 0 1 3.1 2.5c.9 1.1 1.8 2.2 2.6 3.4s1.5 2.3 2.3 3.3a11.2 11.2 0 0 0 2.3 2.5 3.4 3.4 0 0 0 2.5 1.1.8.8 0 0 0 .7-.4 1 1 0 0 1 .9-.4 4 4 0 0 1 1.5.3l1.6.7 1.5.7a4.1 4.1 0 0 0 1.6.3 28.2 28.2 0 0 0 4.1-.2l4.1-.4 4.2-.5a27.3 27.3 0 0 1 4.1-.3c2.6 0 5 .2 7.4.4a52.3 52.3 0 0 1 7.2 1.6l5.1 2 5.1 2.2a55.2 55.2 0 0 0 5.3 1.8 20.2 20.2 0 0 0 5.5.7h2.6q6.4-1.5 12.9-2.7c4.4-.9 8.7-1.7 13-2.3s8.6-1.2 13-1.6 8.7-.6 13.2-.6h8.9a32.9 32.9 0 0 1 5.1 1l36.6 7.3h11.8c-.8 0-1.9 1-3.2 1.3a18 18 0 0 1-4.1.3z"/></symbol></svg>